<svg width="169" height="184" viewBox="0 0 169 184" fill="none" xmlns="http://www.w3.org/2000/svg">
<mask id="mask0" mask-type="alpha" maskUnits="userSpaceOnUse" x="10" y="0" width="159" height="184">
<rect x="10.5369" y="0.835266" width="157.933" height="183.032" rx="19.0044" fill="url(#paint0_linear)"/>
</mask>
<g mask="url(#mask0)">
<path d="M33.857 42.3662C33.857 51.4413 26.5002 58.7981 17.425 58.7981C8.34993 58.7981 0.993103 51.4413 0.993103 42.3662C0.993103 37.5815 3.03813 33.2744 6.30181 30.2713C9.22831 27.5785 13.1347 25.9342 17.425 25.9342C26.5002 25.9342 33.857 33.2911 33.857 42.3662Z" fill="#D15842"/>
<path d="M81.2807 42.3662C81.2807 51.4413 73.9239 58.7981 64.8488 58.7981C55.7737 58.7981 48.4168 51.4413 48.4168 42.3662C48.4168 41.2069 48.5369 40.0758 48.7652 38.9844C50.3244 31.5316 56.9329 25.9342 64.8488 25.9342C73.9239 25.9342 81.2807 33.2911 81.2807 42.3662Z" fill="#D15842"/>
<path d="M62.8272 22.7221C62.8272 30.9924 56.7174 37.8356 48.7652 38.9844C47.9914 39.0961 47.2001 39.154 46.3952 39.154C38.4194 39.154 31.7708 33.4715 30.2771 25.9342C30.0712 24.8954 29.9633 23.8213 29.9633 22.7221C29.9633 21.2783 30.1495 19.8781 30.4992 18.544C32.3475 11.4924 38.7638 6.29012 46.3952 6.29012C55.4703 6.29012 62.8272 13.6469 62.8272 22.7221Z" fill="#D15842"/>
<path d="M33.857 42.3662C33.857 51.4413 26.5002 58.7981 17.425 58.7981H64.8488C55.7737 58.7981 48.4168 51.4413 48.4168 42.3662C48.4168 41.2069 48.5369 40.0758 48.7652 38.9844C47.9914 39.0961 47.2001 39.154 46.3952 39.154C38.4194 39.154 31.7708 33.4715 30.2771 25.9342H19.5584H17.425C26.5002 25.9342 33.857 33.2911 33.857 42.3662Z" fill="#D15842"/>
<path d="M30.2771 25.9342C30.0712 24.8954 29.9633 23.8213 29.9633 22.7221C29.9633 21.2783 30.1495 19.8781 30.4992 18.544C29.126 21.0074 25.0155 25.9342 19.5584 25.9342H30.2771Z" fill="#D15842"/>
<path d="M113.096 29.4042C113.096 35.4147 108.224 40.2873 102.213 40.2873C96.2025 40.2873 91.33 35.4147 91.33 29.4042C91.33 26.2352 92.6845 23.3826 94.846 21.3936C96.7843 19.6101 99.3715 18.5211 102.213 18.5211C108.224 18.5211 113.096 23.3936 113.096 29.4042Z" fill="#D15842"/>
<path d="M144.505 29.4042C144.505 35.4147 139.633 40.2873 133.622 40.2873C127.612 40.2873 122.739 35.4147 122.739 29.4042C122.739 28.6364 122.819 27.8872 122.97 27.1644C124.003 22.2283 128.38 18.5211 133.622 18.5211C139.633 18.5211 144.505 23.3936 144.505 29.4042Z" fill="#D15842"/>
<path d="M132.283 16.3936C132.283 21.8712 128.237 26.4035 122.97 27.1644C122.458 27.2384 121.933 27.2767 121.4 27.2767C116.118 27.2767 111.714 23.5131 110.725 18.5211C110.589 17.8331 110.517 17.1217 110.517 16.3936C110.517 15.4374 110.641 14.51 110.872 13.6265C112.096 8.95609 116.346 5.51056 121.4 5.51056C127.411 5.51056 132.283 10.3831 132.283 16.3936Z" fill="#D15842"/>
<path d="M113.096 29.4042C113.096 35.4147 108.224 40.2873 102.213 40.2873H133.622C127.612 40.2873 122.739 35.4147 122.739 29.4042C122.739 28.6364 122.819 27.8872 122.97 27.1644C122.458 27.2384 121.933 27.2767 121.4 27.2767C116.118 27.2767 111.714 23.5131 110.725 18.5211H103.626H102.213C108.224 18.5211 113.096 23.3936 113.096 29.4042Z" fill="#D15842"/>
<path d="M110.725 18.5211C110.589 17.8331 110.517 17.1217 110.517 16.3936C110.517 15.4374 110.641 14.51 110.872 13.6265C109.963 15.258 107.24 18.5211 103.626 18.5211H110.725Z" fill="#D15842"/>
<circle cx="81.4155" cy="79.8679" r="14.5666" transform="rotate(-30 81.4155 79.8679)" fill="#D15842"/>
<path d="M87.2995 80.2197C87.8193 81.1201 87.9541 82.0557 87.7039 83.0266C87.4536 83.9974 86.9157 84.8615 86.09 85.6189L86.7179 86.7064C86.8934 87.0104 86.9333 87.3226 86.8376 87.6429C86.7603 87.9682 86.5697 88.2186 86.2657 88.3941C85.9733 88.5629 85.667 88.5994 85.3467 88.5037C85.0331 88.4197 84.7885 88.2257 84.613 87.9216L84.0459 86.9393C83.3807 87.2455 82.7242 87.4452 82.0764 87.5385C81.4404 87.6251 80.7553 87.5996 80.0211 87.4622C79.5433 87.3639 79.2065 87.1451 79.0107 86.806C78.8555 86.5371 78.8198 86.2458 78.9038 85.9322C78.9811 85.607 79.1601 85.3633 79.4407 85.2013C79.6629 85.073 79.9022 85.0284 80.1586 85.0674C80.6899 85.1505 81.1699 85.1852 81.5986 85.1716C82.0206 85.1462 82.4414 85.0514 82.861 84.8871L80.8862 81.4667C78.286 82.391 76.4322 81.8943 75.325 79.9765C74.7646 79.0059 74.633 78.0217 74.93 77.0239C75.2203 76.0143 75.8453 75.139 76.805 74.3978L76.4708 73.8189C76.2953 73.5149 76.2495 73.2061 76.3335 72.8925C76.4225 72.5605 76.619 72.3067 76.923 72.1312C77.2154 71.9624 77.5217 71.9259 77.842 72.0216C78.1556 72.1056 78.4001 72.2996 78.5757 72.6037L78.9504 73.2527C80.0456 72.8542 81.0735 72.7441 82.034 72.9224C82.5284 72.9956 82.8768 73.2076 83.0794 73.5584C83.2347 73.8273 83.2737 74.1244 83.1964 74.4497C83.1124 74.7633 82.9359 74.9977 82.6669 75.153C82.4915 75.2542 82.3033 75.2928 82.1022 75.2685C81.5826 75.1787 80.9405 75.2143 80.1758 75.3751L82.0493 78.6201C83.3389 78.2342 84.3928 78.1558 85.2112 78.385C86.0228 78.6024 86.7189 79.214 87.2995 80.2197ZM77.3442 78.6938C77.567 79.0797 77.872 79.3246 78.2594 79.4284C78.64 79.5205 79.1105 79.4983 79.671 79.3618L77.9899 76.45C77.5644 76.8204 77.2998 77.1992 77.196 77.5866C77.0922 77.9739 77.1416 78.343 77.3442 78.6938ZM84.8747 83.514C85.1329 83.1779 85.303 82.8379 85.3852 82.4942C85.4607 82.1388 85.4208 81.8267 85.2655 81.5577C85.0764 81.2303 84.8209 81.0036 84.4987 80.8778C84.1699 80.7402 83.7652 80.701 83.2848 80.7601L84.8747 83.514Z" fill="#ED654C"/>
<circle cx="43.9242" cy="106.27" r="14.5666" transform="rotate(30 43.9242 106.27)" fill="#D15842"/>
<path d="M46.5612 111.541C46.0414 112.442 45.2985 113.026 44.3326 113.295C43.3667 113.564 42.3494 113.53 41.2806 113.193L40.6528 114.281C40.4772 114.585 40.2268 114.776 39.9016 114.853C39.5812 114.949 39.2691 114.909 38.965 114.733C38.6727 114.564 38.4879 114.317 38.4106 113.992C38.3266 113.679 38.3723 113.37 38.5479 113.066L39.115 112.083C38.5173 111.66 38.0161 111.192 37.6114 110.677C37.2184 110.17 36.8978 109.564 36.6498 108.859C36.4961 108.396 36.5171 107.995 36.7129 107.656C36.8682 107.387 37.1026 107.211 37.4162 107.127C37.7365 107.031 38.037 107.064 38.3176 107.226C38.5398 107.355 38.6981 107.539 38.7925 107.781C38.9862 108.283 39.1961 108.716 39.4223 109.08C39.6552 109.433 39.9477 109.75 40.2999 110.031L42.2747 106.611C40.174 104.821 39.6773 102.967 40.7845 101.05C41.3449 100.079 42.1314 99.4728 43.1441 99.2311C44.1635 98.9777 45.2341 99.0813 46.3559 99.5419L46.6901 98.963C46.8656 98.659 47.1102 98.465 47.4237 98.3809C47.7557 98.292 48.0738 98.3353 48.3778 98.5108C48.6702 98.6796 48.855 98.9266 48.9322 99.2519C49.0162 99.5654 48.9705 99.8742 48.795 100.178L48.4202 100.827C49.313 101.577 49.9222 102.412 50.2481 103.333C50.4319 103.797 50.4225 104.205 50.22 104.556C50.0647 104.825 49.8269 105.007 49.5066 105.103C49.193 105.187 48.9018 105.151 48.6328 104.996C48.4574 104.895 48.3299 104.751 48.2504 104.565C48.0683 104.07 47.7165 103.532 47.1949 102.95L45.3214 106.195C46.3004 107.119 46.8952 107.992 47.1059 108.815C47.3234 109.627 47.1418 110.536 46.5612 111.541ZM42.905 102.157C42.6822 102.543 42.6227 102.929 42.7264 103.317C42.837 103.692 43.0915 104.089 43.4899 104.506L45.171 101.594C44.6375 101.411 44.1771 101.371 43.7898 101.475C43.4024 101.579 43.1075 101.806 42.905 102.157ZM42.4959 111.089C42.916 111.144 43.2955 111.121 43.6342 111.021C43.9798 110.908 44.2302 110.718 44.3854 110.449C44.5745 110.121 44.643 109.787 44.5909 109.445C44.5456 109.091 44.3772 108.721 44.0858 108.335L42.4959 111.089Z" fill="#ED654C"/>
</g>
<defs>
<linearGradient id="paint0_linear" x1="89.5035" y1="0.835266" x2="89.5035" y2="183.867" gradientUnits="userSpaceOnUse">
<stop stop-color="#70BDF0"/>
<stop offset="1" stop-color="#90C9EF"/>
</linearGradient>
</defs>
</svg>
